<?xml version="1.0" encoding="utf-8"?>
<!-- Generator: Adobe Illustrator 26.5.0, SVG Export Plug-In . SVG Version: 6.00 Build 0)  -->
<svg version="1.1" xmlns="http://www.w3.org/2000/svg" xmlns:xlink="http://www.w3.org/1999/xlink" x="0px" y="0px"
	 viewBox="0 0 612 792" style="enable-background:new 0 0 612 792;" xml:space="preserve">
<style type="text/css">
	.st0{fill-rule:evenodd;clip-rule:evenodd;fill:none;stroke:#ED1C24;stroke-width:0.216;stroke-miterlimit:2.6131;}
	.st1{fill-rule:evenodd;clip-rule:evenodd;fill:none;stroke:#000000;stroke-width:0.216;stroke-miterlimit:2.6131;}
	.st2{fill-rule:evenodd;clip-rule:evenodd;fill:none;stroke:#ED2024;stroke-width:0.216;stroke-miterlimit:2.6131;}
	.st3{fill-rule:evenodd;clip-rule:evenodd;fill:#FFFFFF;}
</style>
<g id="Layer_1">
	<g>
		<path class="st0" d="M52.9,516c4.2-27.7,8.3-55.5,12.6-83.2c-7-1.3-14.2-2.1-20.8-4.9c2.2-20,5.4-39.9,8-59.8
			c5.5-40,11-79.9,16.5-119.9c7.9-1.1,15.9,0.8,23.7,2c8.3-53.5,16.2-107.1,24.3-160.6c1.5-10.5,3.4-20.9,4.6-31.4
			c-7.5-1.3-14.9-3.3-22.5-4c-1.6,5.2-4.1,10.5-8.7,13.6c-4.7,3.1-10,5-15.3,6.5C66.1,76.6,56.5,78.3,47,77c-2.2-0.3-5.4-1.2-5.2-4
			c0.8-2,1.9-3.8,2.7-5.8c7.8-0.3,15.7,1,23.3-1.5c7.6-2.1,14.4-7.4,17.4-14.8c-5-0.9-10-2.2-15.1-2.8c-4.7,1.1-9.6,2.3-14.5,1.2
			c-10.3-1.8-18.7-10.9-19.7-21.3 M52.9,516 M84.1,545.5c-0.4,2.5-0.8,5-1.1,7.5c-0.3,2-0.6,4-0.9,6c10.6,5.1,20.6,11.7,28.4,20.6
			c10.7,12.1,17.7,27.5,19.4,43.6c2,17.5-1.9,35.6-11.2,50.5C107.9,691.2,90,704.2,70,709c-13.7,3.4-28.3,2.8-41.8-1.2
			c-15.6-4.8-29.6-14.5-39.5-27.4c-10.9-14-16.8-31.7-16.4-49.4c0.2-19.3,7.8-38.5,21.1-52.6c10.9-11.8,25.6-20.2,41.3-23.5
			c4.2-1,8.6-1.3,12.9-1.9c0.2-1.8,0.4-3.7,0.7-5.5c0.4-2.6,0.9-5.3,1.3-7.9 M35.9,28.1c-1.6-12.4,7.6-25,20-26.9
			c12.3-2.5,25.7,6.1,28.2,18.5c0.7,1.6,0,4.5,2.3,4.8c16.2,3.2,32.4,6.2,48.6,9.4c7.4,1.5,15.2,2.1,21.6,6.5
			c1.6,1.2,3.3,2.6,3.6,4.7c-0.5,5.7-2.2,11.2-3.2,16.9c-17.5,116-35,232-52.5,348c-0.2,3.4-2.2,7.2,0.3,10.1
			c32.6,49.4,65.2,98.8,97.8,148.2c8.1,12.6,16.7,24.9,24.6,37.7c-14,0.9-28.1,0.3-42.1,0.3c-3.2-5.9-7.2-11.2-10.7-16.8
			c-24.3-36.7-48.5-73.5-72.8-110.2c-2.1-3.1-4-6.4-6.4-9.3c-2.2,15.9-4.7,31.8-7.2,47.7 M22.8,600.1c5,4.8,10.3,9.1,15.2,13.9
			c1.3-7.8,2.7-15.6,3.4-23.5C34.5,592,28.2,595.5,22.8,600.1 M76.1,597.7c-0.2,2-0.4,4-0.5,6c1.5-1.1,3-2.2,4.4-3.4
			C78.7,599.3,77.4,598.4,76.1,597.7 M19.1,604.1c-6.3,7-10.3,16.4-10.3,25.8c9-0.8,18-1.3,27-1.3c0.3-2,1.1-4.1,0.7-6.1
			c-5.7-6-11.2-12.2-16.7-18.4L19.1,604.1 M73.7,614.5c-0.8,4.7-1.8,9.5-1.9,14.3c7.4-0.2,14.7,0.6,22.1,1
			c-0.4-9.6-4.2-19.2-10.9-26.2C80,607.3,76.5,610.6,73.7,614.5 M8.6,634.5c0.4,8.2,3.4,16.1,8.1,22.8c0.9,0.9,1.6,2.9,3.2,2.7
			c6.2-6.8,12.3-13.8,18.8-20.3c1.1-1,2-2.3,2.7-3.6C30.4,635.4,19.5,635.3,8.6,634.5 M70.7,635.5c-1.3,2.3-3.8,3.4-6,4.6
			c6.1,6.9,12.5,13.5,18.5,20.5c6.5-7,10.2-16.4,10.9-25.9C86.2,634.7,78.5,635.6,70.7,635.5 M24.9,661.9c-0.5,0.7-2.6,1.7-1.4,2.6
			c6.9,6.2,16.1,9.6,25.3,10.3c-0.5-11.3-1.4-22.5-1.2-33.8C40.1,648.1,32.9,655.4,24.9,661.9 M55.1,641.6
			c-0.4,11.1-0.6,22.2-1.4,33.3c9.6-0.7,19-4.4,26.1-10.9C71.3,656.8,63.4,648.9,55.1,641.6"/>
		<path class="st0" d="M482.9,606.3c4.6-30.4,29.2-56.3,59-63.3 M541.2,649.8 M177,632 M541.9,543c16.3-4,33.8-2.6,49.2,3.9
			c17.1,7.1,31.6,20.5,40,37.1c8.7,16.9,10.9,37,6.2,55.5c-6.1,24.6-24.8,45.5-48.5,54.4c-18.2,7-39.1,6.8-57.3-0.3
			c-17.1-6.7-31.6-19.6-40.4-35.7c-0.7-1.7-2.8-1-4.2-1.2c-99.8,0-199.6,0.1-299.5,0c-3.4-8.2-7.2-16.3-10.6-24.5"/>
	</g>
	<g>
		<path class="st0" d="M49.5,539.4c-12.5,1.3-24.9,4.4-36.4,9.7c-5,1.8-9.1,5.5-14.2,6.9c-4.3-0.5-8.7-1.4-12.5-3.6
			c17.7-17.1,39.3-30.9,63.4-36.7c0.8,0,2.4,0.1,3.2,0.1"/>
		<path class="st0" d="M88.2,517.6c12.5,5.1,22.8,14.5,31.3,24.7c12.6,15.7,21,34.4,26.1,53.7c-4.6-0.4-9.2-1.6-13.6-3.2
			c-2-0.5-2.9-2.5-3.9-4.1c-7.2-13.2-16.8-25.2-28.9-34.2c-4.7-3.6-10-6.1-15-9.1"/>
		<path class="st1" d="M482.9,606.3c7.6,0.1,15.2,0.1,22.8,0c7.1-0.1,14.1,0.5,21.2-0.1c1.6-1.3,2.4-3.2,3.5-4.9 M482.9,606.3
			 M530.3,601.2c6.4-10.9,19.1-17.8,31.7-17c12.2,0.2,23.8,7.5,29.8,18.1c7.7,13.4,5.5,31.9-5.8,42.7c-7,7.5-17.4,10.8-27.5,11
			c-6-1.2-12.2-2.6-17.3-6.2c-5.4-3.3-9.4-8.4-12.4-13.9c-0.7-1.3-1.3-2.6-1.9-3.9 M211,613.3c-0.2,1.8-0.2,3.7-0.1,5.5
			c58.7,0.2,117.4,0,176.1,0.1c43.6-0.1,87.2,0.2,130.8-0.1c-0.1-1.8-0.2-3.5-0.3-5.3c-4.5-0.2-9-0.1-13.5-0.1
			C406.3,613.3,308.7,613.4,211,613.3z"/>
	</g>
</g>
<g id="Layer_2">
	<path class="st1" d="M211.1,613.3c-0.2,1.8-0.2,3.7-0.1,5.5c58.7,0.2,117.4,0,176.1,0.1c43.6-0.1,87.2,0.2,130.8-0.1
		c-0.1-1.8-0.2-3.5-0.3-5.3c-4.5-0.2-9-0.1-13.5-0.1C406.4,613.3,308.8,613.4,211.1,613.3z"/>
	<path class="st1" d="M201.6,638.7c-0.2,3-0.1,6,0.2,8.9c69.5-0.1,139.1-0.1,208.6,0c-0.1-2.9-0.1-5.8,0-8.7
		c-6.2-0.8-12.5-0.2-18.7-0.4C328.4,638.6,265,638.3,201.6,638.7z"/>
	<path class="st1" d="M557.4,598.7c-5.2,1.3-10.1,4.1-13.3,8.5c-4.7,6.4-5.5,15.6-1.8,22.6c3.9,7.9,12.9,12.9,21.6,12
		c11.1-1,20.5-11.4,19.5-22.7C583.5,606.2,569.9,595.7,557.4,598.7"/>
	<path class="st1" d="M98.9,430.7c0.2,2,0.5,4.1,1.5,6c3.9,8.3,9.4,15.8,14.5,23.5c26,39,51.9,78.1,77.9,117.2
		c4.4,6.5,8.5,13.3,14.2,18.8c1,1.2,2.5,1.6,4,1.9c-0.8-6.1-4.5-11.2-7.5-16.4c-28.8-43.5-57.7-87-86.6-130.4
		c-4.1-6.1-8-12.5-13.2-17.8C102.4,432,100.7,431,98.9,430.7"/>
	<path class="st1" d="M134.8,66.8c-2.3,4.2-2.3,9.2-3.2,13.8c-27.4,175.6-54.8,351.2-82.1,526.8c-0.8,5.4-2.3,10.9-1.3,16.4
		c0.6,0,2-0.1,2.6-0.1c2.5-4.4,2.6-9.6,3.5-14.5c27.5-176.4,55-352.9,82.5-529.3c0.6-4.2,1.7-8.4,1-12.7
		C137.5,65.9,135.3,65.4,134.8,66.8"/>
	<path class="st1" d="M77.9,256.6c-2.5,13.7-3.8,27.6-5.9,41.4c-5.4,40.6-11.3,81.1-16.5,121.7c1.6-0.1,3.2,0.2,4.8-0.3
		c1.1-3.7,1.2-7.6,1.8-11.3c7-50.3,13.7-100.7,20.8-151.1C81.2,256.8,79.5,256.6,77.9,256.6"/>
	<path class="st1" d="M86.4,31.5c0.3,1.5,0.6,3.1,0.9,4.6c22,3.9,43.9,8,65.9,11.9c-0.3-1.6-0.6-3.2-0.8-4.7
		c-19.7-3.7-39.5-7.2-59.2-10.9C90.9,32,88.7,31.8,86.4,31.5"/>
	<path class="st1" d="M57.3,14.4c-8.3,1.8-11.1,13.5-4.8,19c5.7,6,17.1,2.7,18.6-5.5C73.7,20.1,65.2,12,57.3,14.4"/>
	<path class="st2" d="M177,632c-0.3-0.7-0.6-1.4-1-2.2c-3.5-7.8-7.1-15.5-10.1-23.5c6.4,0,12.9,0,19.3-0.1c14,0,28.1,0.5,42.1-0.3
		c6.9,0.7,13.8,0.3,20.6,0.4c78.3,0,156.6,0,234.9,0"/>
	<path class="st1" d="M177,632c116.6,0.1,233.2,0,349.9,0c3.1,7,7.7,13.6,14.3,17.8c5.1,3.6,11.3,5,17.3,6.2
		c-13.5,1.6-27.3-0.1-40.9,0.9c10.2,13,27,20.2,43.4,20c11.1,0,22-3.4,31.2-9.5c15.6-10.2,25.5-28.6,25.5-47.3
		c0.1-13.7-5.1-27.3-14.1-37.6c-10.7-12.5-27.2-19.9-43.7-19.5c-25.1-0.2-49.4,18.6-54.3,43.4c-7.6,0.1-15.2,0.1-22.8,0"/>
	<rect x="282.2" y="611.9" class="st3" width="117.9" height="28.6"/>
	<g>
		<g>
			<path d="M287.2,615.9h3.7l4.8,15.5l4.8-15.5h3.7l-7,21.3h-3L287.2,615.9z"/>
			<path d="M307.3,636.2c-0.9-0.8-1.3-2-1.3-3.5c0-1.5,0.4-2.6,1.3-3.4s2.2-1.1,4-1.1h4.1l0.2,2.7h-4.3c-0.7,0-1.2,0.1-1.6,0.4
				s-0.5,0.7-0.5,1.3c0,0.6,0.2,1.1,0.7,1.4c0.4,0.3,1.1,0.5,2,0.5c1.1,0,1.9-0.1,2.5-0.4s0.8-0.6,0.8-1.1l0.3,2.2
				c-0.2,0.5-0.5,0.9-0.9,1.2s-0.9,0.6-1.5,0.7c-0.6,0.2-1.2,0.2-1.9,0.2C309.4,637.4,308.1,637,307.3,636.2z M315.2,627.6
				c0-0.8-0.3-1.5-0.8-2s-1.2-0.7-2.1-0.7c-0.6,0-1.2,0.1-1.7,0.3s-1.1,0.4-1.5,0.8l-2.3-2c0.6-0.7,1.4-1.2,2.3-1.6s2-0.6,3.2-0.6
				c1.3,0,2.4,0.2,3.3,0.7s1.6,1.1,2.1,1.9s0.7,1.9,0.7,3.1v9.8h-3.2V627.6z"/>
			<path d="M326.2,632.7c0,0.4,0.1,0.7,0.3,0.9c0.2,0.2,0.4,0.3,0.8,0.3h1v3.4h-1.9c-1.2,0-2.1-0.4-2.7-1.1s-1-1.7-1-3v-17.3h3.5
				V632.7z"/>
			<path d="M334,636.6c-1-0.5-1.8-1.3-2.3-2.3s-0.8-2.3-0.8-3.7v-1.7c0-1.5,0.3-2.8,0.8-3.9s1.3-1.9,2.2-2.4s2.2-0.8,3.5-0.8
				c1.3,0,2.4,0.3,3.3,1c0.9,0.7,1.6,1.6,2.1,2.8s0.7,2.7,0.7,4.5v1h-10.3v-2.6h7.1l0-0.2c-0.1-1.1-0.4-1.9-0.9-2.5s-1.2-0.9-2-0.9
				c-1.1,0-1.9,0.3-2.4,1c-0.6,0.7-0.9,1.6-0.9,2.8v1.9c0,1.2,0.3,2,0.9,2.7c0.6,0.6,1.5,0.9,2.6,0.9c0.6,0,1.1-0.1,1.7-0.3
				c0.6-0.2,1.1-0.5,1.5-0.9l2.3,2.1c-0.8,0.7-1.6,1.3-2.6,1.7c-1,0.4-1.9,0.6-2.9,0.6C336.3,637.4,335,637.1,334,636.6z"/>
			<path d="M347.4,622h3.5v15.2h-3.5V622z M356.4,628c0-0.9-0.2-1.6-0.7-2.1s-1.2-0.7-2.1-0.7c-0.9,0-1.5,0.2-2,0.7
				c-0.5,0.5-0.7,1.1-0.7,2l-0.3-3.1c0.5-0.9,1-1.7,1.7-2.1s1.5-0.7,2.5-0.7c1.6,0,2.9,0.5,3.8,1.6c0.9,1.1,1.3,2.6,1.3,4.6v9.2
				h-3.5V628z"/>
			<path d="M363,622h7.1v3.1H363V622z M365.5,636.2c-0.6-0.7-0.9-1.7-0.9-3v-15.7h3.5v15.2c0,0.4,0.1,0.7,0.2,0.9
				c0.1,0.2,0.4,0.3,0.6,0.3h1.2v3.4h-1.9C367,637.3,366.1,636.9,365.5,636.2z"/>
			<path d="M373.9,615.9h3.5v3.5h-3.5V615.9z M373.9,622h3.5v15.2h-3.5V622z"/>
			<path d="M381.5,622h3.5v15.2h-3.5V622z M390.5,628c0-0.9-0.2-1.6-0.7-2.1s-1.2-0.7-2.1-0.7c-0.9,0-1.5,0.2-2,0.7
				c-0.5,0.5-0.7,1.1-0.7,2l-0.3-3.1c0.5-0.9,1-1.7,1.7-2.1s1.5-0.7,2.5-0.7c1.6,0,2.9,0.5,3.8,1.6c0.9,1.1,1.3,2.6,1.3,4.6v9.2
				h-3.5V628z"/>
		</g>
	</g>
</g>
</svg>
